<?xml version="1.0" standalone="no"?>
<!DOCTYPE svg PUBLIC "-//W3C//DTD SVG 1.0//EN" "http://www.w3.org/TR/2001/REC-SVG-20010904/DTD/svg10.dtd">
<svg xmlns="http://www.w3.org/2000/svg" xmlns:xlink="http://www.w3.org/1999/xlink" id="body_1" width="2500" height="2500">

<defs>
    <linearGradient transform="matrix(1 0 0 1 0 0)"  id="1" x1="98.031" y1="0.161" x2="58.888" y2="40.766">
        <stop stop-color="#0052CC" offset="0%"/>
        <stop stop-color="#2684FF" offset="100%"/>
    </linearGradient>
    <linearGradient transform="matrix(1 0 0 1 0 0)"  id="231" x1="100.665" y1="0.455" x2="55.402" y2="44.727">
        <stop stop-color="#0052CC" offset="0%"/>
        <stop stop-color="#2684FF" offset="100%"/>
    </linearGradient>
</defs>

<g transform="matrix(8.742592 0 0 8.742592 133.90323 262.27777)">
    <path d="M244.658 0L121.707 0C 121.707016 30.652908 146.5561 55.502 177.209 55.502L177.209 55.502L199.858 55.502L199.858 77.37C 199.878 107.995 224.699 132.817 255.324 132.837L255.324 132.837L255.324 10.666C 255.324 4.777 250.55 0 244.658 0z" stroke="none" fill="#2684FF" fill-rule="nonzero" />
    <path d="M183.822 61.262L60.872 61.262C 60.891003 91.887 85.712006 116.709 116.338 116.729004L116.338 116.729004L138.987 116.729004L138.987 138.667C 139.026 169.292 163.864 194.09702 194.489 194.09702L194.489 194.09702L194.489 71.93C 194.489 66.039 189.713 61.263 183.82199 61.263L183.82199 61.263L183.822 61.262z" stroke="none" fill="url(#1)" />
    <path d="M122.951 122.489L0 122.489C 0 153.142 24.85 177.991 55.502 177.991L55.502 177.991L78.222 177.991L78.222 199.858C 78.242 230.455 103.020004 255.266 133.618 255.324L133.618 255.324L133.618 133.156C 133.618 127.26501 128.842 122.489006 122.951 122.489006L122.951 122.489006L122.951 122.489z" stroke="none" fill="url(#231)" />
</g>
</svg>